<?xml version="1.0" encoding="utf-8"?>
<!-- Generator: Adobe Illustrator 21.0.0, SVG Export Plug-In . SVG Version: 6.00 Build 0)  -->
<svg version="1.0" id="图层_1" xmlns="http://www.w3.org/2000/svg" xmlns:xlink="http://www.w3.org/1999/xlink" x="0px" y="0px"
	 viewBox="0 0 145 145" style="enable-background:new 0 0 145 145;" xml:space="preserve">
<style type="text/css">
	.st0{fill:#E3E8F4;}
	.st1{fill-rule:evenodd;clip-rule:evenodd;fill:#FFFFFF;}
</style>
<rect x="0" class="st0" width="145" height="145"/>
<g>
	<path class="st1" d="M83.8,81.9c-0.2-0.1-0.3-0.1-0.6-0.3c-0.2-0.1-0.5-0.4-0.8-0.8c-0.3-0.4-0.6-0.8-0.7-1.4
		c-0.2-0.5-0.2-1.3-0.2-2.2c0-0.9,0.2-2,0.6-3.1C84.8,71.5,87,68,88.8,64c1.7-4.1,2.6-8.2,2.6-12.3c0-6.3-1.8-11.2-5.4-14.7
		c-3.6-3.5-8.1-5.3-13.4-5.3c-5.4,0-9.8,1.8-13.4,5.3c-3.6,3.5-5.4,8.4-5.4,14.7c0,4.2,0.9,8.3,2.6,12.4c1.7,4.1,3.9,7.5,6.6,10.3
		c0.4,1.4,0.6,2.5,0.6,3.4c0,0.9-0.2,1.6-0.7,2.3c-0.5,0.6-0.9,1.1-1.3,1.4c-0.4,0.3-0.7,0.5-1,0.6c-3.9,1.4-7.4,3-10.8,4.7
		c-3.3,1.8-6.2,3.8-8.6,6.2c-2.4,2.4-3.7,4.6-3.7,6.8v2.6c0,2.2,1,4.2,3,5.7c2,1.6,4.8,2.8,8.3,3.6c3.5,0.8,7.2,1.4,11,1.7
		c3.8,0.3,8.1,0.5,12.7,0.5c23.3,0,34.9-3.9,34.9-11.6v-2.6c0-2.2-1.2-4.6-3.7-6.9c-2.5-2.4-5.4-4.4-8.8-6.2
		C91.5,84.8,87.8,83.3,83.8,81.9L83.8,81.9L83.8,81.9z"/>
</g>
</svg>
