<?xml version="1.0" encoding="utf-8"?>
<!-- Generator: Adobe Illustrator 21.0.0, SVG Export Plug-In . SVG Version: 6.00 Build 0)  -->
<svg version="1.0" id="图层_1" xmlns="http://www.w3.org/2000/svg" xmlns:xlink="http://www.w3.org/1999/xlink" x="0px" y="0px"
	 viewBox="0 0 30 30" style="enable-background:new 0 0 30 30;" xml:space="preserve">
<style type="text/css">
	.st0{fill:#FF5D5D;}
	.st1{fill:#FFFFFF;}
</style>
<g>
	<path class="st0" d="M15,0C6.7,0,0,6.7,0,15c0,8.3,6.7,15,15,15s15-6.7,15-15C30,6.7,23.3,0,15,0z M22.5,17h-15c-1.1,0-2-0.9-2-2
		c0-1.1,0.9-2,2-2h15c1.1,0,2,0.9,2,2C24.5,16.1,23.6,17,22.5,17z"/>
	<path class="st1" d="M22.5,13h-15c-1.1,0-2,0.9-2,2c0,1.1,0.9,2,2,2h15c1.1,0,2-0.9,2-2C24.5,13.9,23.6,13,22.5,13z"/>
</g>
</svg>
