<?xml version="1.0" encoding="utf-8"?>
<!-- Generator: Adobe Illustrator 21.0.0, SVG Export Plug-In . SVG Version: 6.00 Build 0)  -->
<svg version="1.0" id="图层_1" xmlns="http://www.w3.org/2000/svg" xmlns:xlink="http://www.w3.org/1999/xlink" x="0px" y="0px"
	 viewBox="0 0 120 100" style="enable-background:new 0 0 120 100;" xml:space="preserve">
<style type="text/css">
	.st0{fill:#EBEEF4;}
	.st1{fill:#A6AFC1;}
</style>
<rect class="st0" width="120" height="100"/>
<g>
	<path class="st1" d="M81.5,73.4H38.6c-4.7,0-8.6-3.7-8.6-8.3v-25c0-4.6,3.8-8.3,8.6-8.3h6c1.3-3.1,4.3-5.2,7.9-5.2h15
		c3.6,0,6.7,2.2,7.9,5.2h6c4.7,0,8.6,3.7,8.6,8.3v25C90.1,69.7,86.2,73.4,81.5,73.4L81.5,73.4L81.5,73.4z M60.1,37
		c-8.3,0-15,6.5-15,14.6s6.7,14.6,15,14.6s15-6.5,15-14.6S68.4,37,60.1,37L60.1,37L60.1,37z M60.1,62c-5.9,0-10.7-4.7-10.7-10.4
		s4.8-10.4,10.7-10.4s10.7,4.7,10.7,10.4S66,62,60.1,62L60.1,62L60.1,62z"/>
</g>
</svg>
