<?xml version="1.0" encoding="utf-8"?>
<!-- Generator: Adobe Illustrator 21.0.0, SVG Export Plug-In . SVG Version: 6.00 Build 0)  -->
<svg version="1.0" id="图层_1" xmlns="http://www.w3.org/2000/svg" xmlns:xlink="http://www.w3.org/1999/xlink" x="0px" y="0px"
	 viewBox="0 0 50 50" style="enable-background:new 0 0 50 50;" xml:space="preserve">
<style type="text/css">
	.st0{fill:#C7C7C7;}
</style>
<g>
	<g>
		<path class="st0" d="M25,0C11.2,0,0,11.2,0,25c0,13.8,11.2,25,25,25c13.8,0,25-11.2,25-25S38.8,0,25,0L25,0z M37.6,34
			c1,1,1,2.6,0,3.6c-0.5,0.5-1.2,0.8-1.8,0.8c-0.7,0-1.3-0.3-1.8-0.8l-9-9l-9,9c-0.5,0.5-1.2,0.8-1.8,0.8c-0.7,0-1.3-0.3-1.8-0.8
			c-1-1-1-2.6,0-3.6l9-9l-9-9c-1-1-1-2.6,0-3.6c1-1,2.6-1,3.6,0l9,9l9-9c1-1,2.6-1,3.6,0c1,1,1,2.6,0,3.6l-9,9L37.6,34z M37.6,34"/>
	</g>
</g>
</svg>
