<?xml version="1.0" encoding="utf-8"?>
<!-- Generator: Adobe Illustrator 21.0.0, SVG Export Plug-In . SVG Version: 6.00 Build 0)  -->
<svg version="1.0" id="图层_1" xmlns="http://www.w3.org/2000/svg" xmlns:xlink="http://www.w3.org/1999/xlink" x="0px" y="0px"
	 viewBox="0 0 42 42" style="enable-background:new 0 0 42 42;" xml:space="preserve">
<style type="text/css">
	.st0{fill:#6198D4;}
</style>
<g>
	<path class="st0" d="M17.1,5.1v12.1H5.1V5.1H17.1L17.1,5.1z M19.2,3H3v16.2h16.2V3"/>
	<path class="st0" d="M11.2,11v0.3H11V11H11.2L11.2,11z M13.3,8.9H9v4.3h4.3V8.9 M17.1,24.9v12.1H5.1V24.9H17.1L17.1,24.9z
		 M19.2,22.8H3V39h16.2V22.8"/>
	<path class="st0" d="M11.2,30.8V31H11v-0.3H11.2L11.2,30.8z M13.3,28.7H9V33h4.3V28.7"/>
	<path class="st0" d="M36.9,5.1v12.1H24.9V5.1H36.9L36.9,5.1z M39,3H22.8v16.2H39V3"/>
	<path class="st0" d="M31,11v0.3h-0.3V11H31L31,11z M33.1,8.9h-4.3v4.3h4.3V8.9"/>
	<path class="st0" d="M30.9,36.9h8.1V39h-8.1V36.9L30.9,36.9z M24.9,24.9h6v-2.1h-8.1v5.4h2.1V24.9L24.9,24.9z M22.8,30.9V39h2.1v-6
		h3.3v-2.1h-3.3L22.8,30.9L22.8,30.9z M35,30.9v-4h4v-4h-4v4h-4v4H35v4h4v-4H35L35,30.9z"/>
</g>
</svg>
