<?xml version="1.0" encoding="utf-8"?>
<!-- Generator: Adobe Illustrator 21.0.0, SVG Export Plug-In . SVG Version: 6.00 Build 0)  -->
<svg version="1.0" id="图层_1" xmlns="http://www.w3.org/2000/svg" xmlns:xlink="http://www.w3.org/1999/xlink" x="0px" y="0px"
	 viewBox="0 0 50 50" style="enable-background:new 0 0 50 50;" xml:space="preserve">
<style type="text/css">
	.st0{fill-rule:evenodd;clip-rule:evenodd;fill:#9D9EA0;}
</style>
<g>
	<g>
		<path class="st0" d="M25.1,0c-13.8,0-25,11.2-25,25s11.2,25,25,25c13.8,0,25-11.2,25-25S38.9,0,25.1,0z M25.1,46.8
			C13.1,46.8,3.3,37,3.3,25S13.1,3.3,25.1,3.3c12,0,21.7,9.8,21.7,21.8S37.1,46.8,25.1,46.8z"/>
		<path class="st0" d="M34.4,17.7c-1.7,0-3,1.4-3,3.1c0,1.7,1.4,3,3,3s3-1.4,3-3C37.4,19.1,36.1,17.7,34.4,17.7L34.4,17.7z"/>
		<path class="st0" d="M19.1,20.8c0-1.7-1.4-3.1-3-3.1s-3,1.4-3,3.1c0,1.7,1.4,3,3,3C17.8,23.8,19.1,22.5,19.1,20.8L19.1,20.8z"/>
	</g>
	<path class="st0" d="M25,30.8c-2,0-3.9,0.5-5.6,1.5c-1.6,0.9-3,2.3-4,3.9c-0.4,0.7-0.2,1.7,0.5,2.1c0.7,0.4,1.7,0.2,2.1-0.5
		c1.5-2.4,4-3.9,6.9-3.9c2.9,0,5.6,1.6,7,4.1c0.3,0.5,0.8,0.8,1.4,0.8c0.3,0,0.5-0.1,0.8-0.2c0.8-0.4,1-1.4,0.6-2.1
		C32.7,33,29,30.8,25,30.8L25,30.8L25,30.8z"/>
</g>
</svg>
