<?xml version="1.0" encoding="utf-8"?>
<!-- Generator: Adobe Illustrator 21.0.0, SVG Export Plug-In . SVG Version: 6.00 Build 0)  -->
<svg version="1.0" id="图层_1" xmlns="http://www.w3.org/2000/svg" xmlns:xlink="http://www.w3.org/1999/xlink" x="0px" y="0px"
	 viewBox="0 0 27 30" style="enable-background:new 0 0 27 30;" xml:space="preserve">
<style type="text/css">
	.st0{fill-rule:evenodd;clip-rule:evenodd;fill:#6198D4;}
</style>
<g>
	<path class="st0" d="M21.3,30L21.3,30l-0.2,0c-3.6-0.2-8.5-3.6-13-9.1l-1.7-2C1.9,13.4-0.5,8,0.1,4.5C0.5,2.1,4.1,0,6.2,0
		c1,0,1.4,0.5,1.5,0.8c1.2,2.1,2.7,5.8,2.7,7.1l0,0.1l0,0.1c-0.3,0.7-0.8,1-1.4,1.3C8.4,9.8,8,10,7.9,10.8c0,0.2,0.2,1.2,3.2,4.9
		l1.3,1.5c3,3.5,4,3.9,4.2,4c0.7,0.1,1.1-0.2,1.6-0.8c0.4-0.4,0.8-0.9,1.6-1l0.1,0l0.1,0c1.3,0.3,4.7,2.4,6.6,4
		c0.3,0.2,0.8,0.7,0.4,1.9C26.3,27.2,23.7,30,21.3,30L21.3,30L21.3,30L21.3,30z"/>
</g>
</svg>
