<?xml version="1.0" encoding="utf-8"?>
<!-- Generator: Adobe Illustrator 21.0.0, SVG Export Plug-In . SVG Version: 6.00 Build 0)  -->
<svg version="1.0" id="图层_1" xmlns="http://www.w3.org/2000/svg" xmlns:xlink="http://www.w3.org/1999/xlink" x="0px" y="0px"
	 viewBox="0 0 36 30" style="enable-background:new 0 0 36 30;" xml:space="preserve">
<style type="text/css">
	.st0{fill-rule:evenodd;clip-rule:evenodd;fill:#FF8666;}
</style>
<g>
	<path class="st0" d="M32.6,5.1h-5.2l-2.7-4.5H11.3L8.6,5.1H3.4C2.2,5.1,0,6.2,0,8.4v18c0,1.9,1.7,3.4,3.1,3.4h29.6
		c1.5,0,3.3-1.6,3.3-3.3v-18C36,7.3,34.9,5.1,32.6,5.1z M18,24.2c-4.3,0-7.9-3.5-7.9-7.9c0-4.3,3.5-7.9,7.9-7.9
		c4.3,0,7.9,3.5,7.9,7.9C25.9,20.7,22.3,24.2,18,24.2z"/>
	<circle class="st0" cx="18" cy="16.3" r="5.6"/>
</g>
</svg>
