<?xml version="1.0" encoding="utf-8"?>
<!-- Generator: Adobe Illustrator 21.0.0, SVG Export Plug-In . SVG Version: 6.00 Build 0)  -->
<svg version="1.0" id="图层_1" xmlns="http://www.w3.org/2000/svg" xmlns:xlink="http://www.w3.org/1999/xlink" x="0px" y="0px"
	 viewBox="0 0 22 26" style="enable-background:new 0 0 22 26;" xml:space="preserve">
<style type="text/css">
	.st0{fill-rule:evenodd;clip-rule:evenodd;fill:#BCBCBC;}
</style>
<g>
	<path class="st0" d="M17.2,21.3H3.8C3.4,21.3,3,21,3,20.5c0-0.4,0.4-0.8,0.8-0.8h13.4c0.4,0,0.8,0.4,0.8,0.8
		C18,21,17.6,21.3,17.2,21.3L17.2,21.3z"/>
	<path class="st0" d="M18.7,25.4H2.4c-1.3,0-2.4-1.1-2.4-2.4V2.5c0-1.3,1.1-2.4,2.4-2.4h11c0.4,0,0.8,0.4,0.8,0.8
		c0,0.4-0.4,0.8-0.8,0.8h-11C1.9,1.7,1.6,2,1.6,2.5v20.6c0,0.4,0.4,0.8,0.8,0.8h16.3c0.4,0,0.8-0.4,0.8-0.8v-6.4
		c0-0.4,0.4-0.8,0.8-0.8c0.4,0,0.8,0.4,0.8,0.8v6.4C21,24.4,20,25.4,18.7,25.4L18.7,25.4z"/>
	<g>
		<path class="st0" d="M21.8,5.5L17.3,1c-0.2-0.2-0.6-0.2-0.8,0L3.2,14.3C3.1,14.4,3,14.5,3,14.7s0.1,0.3,0.2,0.4l4.5,4.5
			c0.1,0.1,0.3,0.2,0.4,0.2c0.2,0,0.3-0.1,0.4-0.2L21.8,6.3C21.9,6.2,22,6,22,5.9S21.9,5.6,21.8,5.5L21.8,5.5L21.8,5.5z M8.1,18.3
			l-3.7-3.7l0.9-0.9l1.1,1.1c0.1,0.1,0.3,0.2,0.4,0.2c0.2,0,0.3-0.1,0.4-0.2c0.2-0.2,0.2-0.6,0-0.8L6.2,13l0.7-0.7L8,13.3
			c0.1,0.1,0.3,0.2,0.4,0.2c0.2,0,0.3-0.1,0.4-0.2c0.2-0.2,0.2-0.6,0-0.8l-1.1-1.1l0.7-0.7l2.1,2.1c0.1,0.1,0.3,0.2,0.4,0.2
			c0.2,0,0.3-0.1,0.4-0.2c0.2-0.2,0.2-0.6,0-0.8L9.3,9.8L10,9.1l1.1,1.1c0.1,0.1,0.3,0.2,0.4,0.2c0.2,0,0.3-0.1,0.4-0.2
			c0.2-0.2,0.2-0.6,0-0.8l-1.1-1.1l0.7-0.7l1.1,1.1c0.1,0.1,0.3,0.2,0.4,0.2c0.1,0,0.3-0.1,0.4-0.2c0.2-0.2,0.2-0.6,0-0.8l-1.1-1.1
			L13.1,6l2.1,2.1c0.1,0.1,0.3,0.2,0.4,0.2c0.2,0,0.3-0.1,0.4-0.2c0.2-0.2,0.2-0.6,0-0.8l-2.1-2.1l0.7-0.7l1.1,1.1
			c0.1,0.1,0.3,0.2,0.4,0.2c0.2,0,0.3-0.1,0.4-0.2c0.2-0.2,0.2-0.6,0-0.8l-1.1-1.1l1.4-1.4l3.7,3.7L8.1,18.3L8.1,18.3L8.1,18.3z"/>
	</g>
</g>
</svg>
