<?xml version="1.0" encoding="utf-8"?>
<!-- Generator: Adobe Illustrator 21.0.0, SVG Export Plug-In . SVG Version: 6.00 Build 0)  -->
<svg version="1.0" id="图层_1" xmlns="http://www.w3.org/2000/svg" xmlns:xlink="http://www.w3.org/1999/xlink" x="0px" y="0px"
	 viewBox="0 0 36 36" style="enable-background:new 0 0 36 36;" xml:space="preserve">
<style type="text/css">
	.st0{fill:#27C7F2;}
</style>
<path class="st0" d="M24.1,0c-2.3,0-4.4,0.7-6.3,1.8c-1.8-1-3.7-1.6-5.7-1.6C5.4,0.3,0,5.8,0,12.7c0,2.4,0.7,4.7,2,6.9l15.8,16.6
	l16-16.6c1.5-2.1,2.3-4.6,2.3-7.2C36,5.6,30.6,0,24.1,0z M25.7,15.1c-0.2,0.3-0.6,0.4-0.9,0.4s-0.7-0.1-0.9-0.3l-2.3-2.4
	c-0.2-0.2-0.3-0.7-0.3-1s0.1-0.8,0.3-1l2.1-2.3c0.2-0.2,0.6-0.3,0.9-0.3c0.4,0.1,0.7,0.2,0.9,0.4c0.6,0.6,0.5,1.4,0,1.9l-1.2,1.3
	l1.4,1.2C26.1,13.7,26.1,14.5,25.7,15.1z"/>
</svg>
