<?xml version="1.0" encoding="utf-8"?>
<!-- Generator: Adobe Illustrator 21.0.0, SVG Export Plug-In . SVG Version: 6.00 Build 0)  -->
<svg version="1.0" id="图层_1" xmlns="http://www.w3.org/2000/svg" xmlns:xlink="http://www.w3.org/1999/xlink" x="0px" y="0px"
	 viewBox="0 0 30 27" style="enable-background:new 0 0 30 27;" xml:space="preserve">
<style type="text/css">
	.st0{fill-rule:evenodd;clip-rule:evenodd;fill:#FFFFFF;}
</style>
<g>
	<path class="st0" d="M15,0.1c4.1,0,8.1,0,12.2,0c2,0,2.8,0.9,2.8,2.8c0,5,0,10,0,15c0,2.1-1,2.9-3,2.9c-4-0.1-8,0.1-12-0.1
		c-1.8-0.1-3.1,0.4-4.2,1.8c-0.9,1.1-2.1,2-3.2,3c-1.2,1.1-1.7,0.7-2-0.7c0-0.2,0-0.3,0-0.5c0.4-2.6-0.2-4.1-3.4-3.7
		C0.8,20.9,0,19.8,0,18.3C0,13.1,0,7.9,0,2.6c0-1.7,0.8-2.5,2.6-2.5C6.7,0.2,10.9,0.1,15,0.1L15,0.1z M7.9,22.8
		c0.6-0.6,1.2-1,1.5-1.4c1.5-2.1,3.5-2.6,6.1-2.5c3.6,0.2,7.2,0,10.8,0.1c1.3,0,2-0.3,1.9-1.8c-0.1-4.5-0.1-8.9,0-13.4
		c0-1.2-0.2-1.8-1.7-1.8C18.8,2,11.2,2,3.5,2c-1.4,0-1.7,0.5-1.7,1.8c0.1,4.5,0.1,9.1,0,13.6c0,1.3,0.4,1.6,1.6,1.6
		C7.1,19,7.1,19.1,7.9,22.8L7.9,22.8z"/>
	<path class="st0" d="M15.2,9.5c2.4,0,4.8,0,7.2,0c0.6,0,1.6-0.2,1.6,0.8c0,1-0.8,1-1.5,1c-5.1,0-10.1,0-15.2,0c-0.7,0-1.6,0-1.5-1
		c0.1-1,1-0.8,1.6-0.8C10.1,9.5,12.7,9.5,15.2,9.5L15.2,9.5z"/>
	<path class="st0" d="M15,5.8c2.5,0,5,0,7.5,0c0.7,0,1.6-0.2,1.6,0.8c0.1,1-0.8,1-1.5,1c-5.1,0-10.1,0-15.2,0c-0.7,0-1.6,0-1.5-1
		c0-1,1-0.8,1.6-0.8C10,5.7,12.5,5.8,15,5.8L15,5.8z"/>
	<path class="st0" d="M12.2,13.3c1.7,0,3.4,0,5.1,0c0.6,0,1.1,0.2,1.2,0.9c0,0.7-0.5,0.9-1.1,0.9c-3.4,0-6.8,0-10.3,0
		c-0.7,0-1.3-0.2-1.3-1c0.1-0.9,0.9-0.7,1.4-0.8C8.9,13.3,10.6,13.3,12.2,13.3C12.2,13.3,12.2,13.3,12.2,13.3L12.2,13.3z"/>
</g>
</svg>
