<?xml version="1.0" encoding="utf-8"?>
<!-- Generator: Adobe Illustrator 21.0.0, SVG Export Plug-In . SVG Version: 6.00 Build 0)  -->
<svg version="1.0" id="图层_1" xmlns="http://www.w3.org/2000/svg" xmlns:xlink="http://www.w3.org/1999/xlink" x="0px" y="0px"
	 viewBox="0 0 27 34" style="enable-background:new 0 0 27 34;" xml:space="preserve">
<style type="text/css">
	.st0{fill-rule:evenodd;clip-rule:evenodd;fill:#5A5A5A;}
</style>
<g>
	<path class="st0" d="M25.7,31.4h-1.1c-0.2-4-1.1-7-2.4-9.3l0,0c-1.4-2.4-3.2-3.9-5.1-4.8c1.9-1,3.7-2.5,5.1-4.8l0,0
		c1.4-2.3,2.3-5.5,2.4-9.8h1.1C26.4,2.6,27,2,27,1.3C27,0.6,26.4,0,25.7,0h-24C0.9,0,0.3,0.6,0.3,1.3c0,0.7,0.6,1.3,1.3,1.3h1.1
		c0.2,4.3,1.1,7.4,2.4,9.8l0,0c1.4,2.4,3.2,3.9,5.1,4.8c-1.9,0.9-3.7,2.5-5.1,4.8l0,0c-1.3,2.3-2.2,5.3-2.4,9.3H1.6
		c-0.7,0-1.3,0.6-1.3,1.3c0,0.7,0.6,1.3,1.3,1.3h24c0.7,0,1.3-0.6,1.3-1.3C27,32,26.4,31.4,25.7,31.4L25.7,31.4z M6.5,22.9L6.5,22.9
		c1.6-2.8,3.3-4.2,5.6-4.9l0.1-0.1h0c0,0,0.1,0,0.1-0.1l0,0l0.1,0l0,0l0.1-0.1l0,0c0,0,0.1-0.1,0.1-0.1v0c0-0.1,0.1-0.1,0.1-0.2l0,0
		v-0.1l0,0v0l0,0v0l0,0c0-0.1,0-0.1-0.1-0.2v0c0-0.1-0.1-0.1-0.1-0.1l0,0l-0.1,0h0l-0.1-0.1l0,0c0,0-0.1-0.1-0.1-0.1l0,0l-0.1,0
		c-2.3-0.7-4-2.2-5.6-4.9l0,0c-1.2-2.1-2.1-5.1-2.2-9H23c-0.1,3.9-1,6.9-2.2,9l0,0c-1.6,2.7-3.3,4.2-5.6,4.9l-0.1,0l0,0
		c0,0-0.1,0.1-0.1,0.1l0,0l-0.1,0.1l-0.1,0l0,0c0,0-0.1,0.1-0.1,0.1l0,0c0,0.1,0,0.1-0.1,0.2v0.3c0,0.1,0,0.1,0.1,0.2l0,0
		c0,0,0,0.1,0.1,0.1l0,0l0.1,0.1v0l0.1,0l0,0c0,0,0.1,0.1,0.1,0.1h0l0.1,0.1c2.3,0.7,4,2.2,5.6,4.9l0,0.1c0.7,1.1,1.2,2.5,1.6,4
		c0.1,0.5,0.4,1.4,0.4,2.7c-1.2-1.1-4.7-1.9-8.9-2V15.4c0,0,0.1,0,0.1,0l0,0l0.2-0.1l0,0h0c1.5-0.5,2.7-1.2,3.7-2.2
		c1.1-1.1,1.9-2.4,2.5-3.8c0.2-0.4,0-0.9-0.4-1c-0.4-0.2-0.9,0-1,0.4c-0.5,1.2-1.2,2.4-2.1,3.3c-0.8,0.8-1.8,1.4-3.1,1.8l0,0l-0.1,0
		l-0.1,0l-0.1,0l-0.1,0l-0.1,0c-1.2-0.4-2.3-1-3.1-1.8c-0.9-0.9-1.6-2-2.1-3.3c-0.1-0.4-0.6-0.6-1-0.4c-0.4,0.1-0.6,0.6-0.4,1
		c0.6,1.4,1.4,2.8,2.5,3.8c1,1,2.2,1.7,3.7,2.2h0l0,0l0.2,0.1l0.1,0c0,0,0.1,0,0.1,0v12.3c-3.9,0-7.3,0.7-8.9,1.6
		C4.5,28.7,4.7,28,4.9,27C5.3,25.4,5.8,24,6.5,22.9L6.5,22.9z"/>
</g>
</svg>
