<?xml version="1.0" encoding="utf-8"?>
<!-- Generator: Adobe Illustrator 21.0.0, SVG Export Plug-In . SVG Version: 6.00 Build 0)  -->
<svg version="1.0" id="图层_1" xmlns="http://www.w3.org/2000/svg" xmlns:xlink="http://www.w3.org/1999/xlink" x="0px" y="0px"
	 viewBox="0 0 26 27" style="enable-background:new 0 0 26 27;" xml:space="preserve">
<style type="text/css">
	.st0{fill-rule:evenodd;clip-rule:evenodd;fill:#6198D4;}
</style>
<g>
	<path class="st0" d="M12.4,20.5c-0.4-0.3-0.9-0.2-1.2,0.2l-1.9,2.5c-0.7,0.9-1.6,1.5-2.7,1.6c-1.1,0.2-2.2-0.1-3.1-0.8
		c-0.9-0.7-1.5-1.6-1.6-2.7c-0.2-1.1,0.1-2.2,0.8-3.1l5.5-7.3c0.7-0.9,1.6-1.5,2.7-1.6c1.1-0.2,2.2,0.1,3.1,0.8
		c0.7,0.5,1.2,1.3,1.5,2.1c0.1,0.4,0.5,0.7,0.9,0.6c0.5-0.1,0.9-0.6,0.7-1.1c-0.1-0.4-0.3-0.8-0.5-1.2c-0.4-0.7-0.9-1.3-1.6-1.8
		c-1.3-0.9-2.8-1.3-4.4-1.1c-1.6,0.2-3,1-3.9,2.3l-5.5,7.3c-0.9,1.3-1.3,2.8-1.1,4.4c0.2,1.6,1,3,2.3,3.9c1,0.8,2.3,1.2,3.5,1.2
		c0.3,0,0.6,0,0.8-0.1c1.6-0.2,3-1,3.9-2.3l1.9-2.5C12.8,21.3,12.7,20.8,12.4,20.5L12.4,20.5z"/>
	<path class="st0" d="M25.9,5.4c-0.2-1.6-1-3-2.3-3.9c-1.3-0.9-2.8-1.3-4.4-1.1c-1.6,0.2-3,1-3.9,2.3l-1.8,2.4
		c-0.3,0.4-0.2,0.9,0.2,1.2c0.4,0.3,0.9,0.2,1.2-0.2l1.8-2.4c0.7-0.9,1.6-1.5,2.7-1.6c1.1-0.2,2.2,0.1,3.1,0.8
		c0.9,0.7,1.5,1.6,1.6,2.7c0.2,1.1-0.1,2.2-0.8,3.1L17.9,16c-0.7,0.9-1.6,1.5-2.7,1.6c-1.1,0.2-2.2-0.1-3.1-0.8
		c-0.7-0.5-1.2-1.3-1.5-2.1c-0.1-0.4-0.5-0.7-0.9-0.6c-0.5,0.1-0.9,0.6-0.7,1.1c0.1,0.4,0.3,0.8,0.5,1.2c0.4,0.7,0.9,1.3,1.6,1.8
		c1,0.8,2.3,1.2,3.5,1.2c0.3,0,0.6,0,0.8-0.1c1.6-0.2,3-1,3.9-2.3l5.5-7.3C25.8,8.6,26.2,7,25.9,5.4L25.9,5.4z"/>
</g>
</svg>
