<?xml version="1.0" encoding="utf-8"?>
<!-- Generator: Adobe Illustrator 21.0.0, SVG Export Plug-In . SVG Version: 6.00 Build 0)  -->
<svg version="1.0" id="图层_1" xmlns="http://www.w3.org/2000/svg" xmlns:xlink="http://www.w3.org/1999/xlink" x="0px" y="0px"
	 viewBox="0 0 30 28" style="enable-background:new 0 0 30 28;" xml:space="preserve">
<style type="text/css">
	.st0{fill-rule:evenodd;clip-rule:evenodd;fill:#FFFFFF;}
</style>
<path class="st0" d="M21.6,0.1c-2.6,0-5,1.3-6.6,3.4c-1.6-2.1-4-3.4-6.6-3.4C3.8,0.1,0,4.2,0,9.3c0,3,1.4,5.2,2.4,6.9
	c3.2,5,11.1,11.2,11.5,11.4c0.3,0.3,0.7,0.4,1.1,0.4c0.4,0,0.8-0.1,1.1-0.4c0.3-0.3,8.3-6.4,11.5-11.4c1.1-1.7,2.4-3.8,2.4-6.9
	C30,4.2,26.2,0.1,21.6,0.1L21.6,0.1L21.6,0.1"/>
<path class="st0" d="M26,15"/>
</svg>
