<?xml version="1.0" encoding="utf-8"?>
<!-- Generator: Adobe Illustrator 21.0.0, SVG Export Plug-In . SVG Version: 6.00 Build 0)  -->
<svg version="1.0" id="图层_1" xmlns="http://www.w3.org/2000/svg" xmlns:xlink="http://www.w3.org/1999/xlink" x="0px" y="0px"
	 viewBox="0 0 42 38" style="enable-background:new 0 0 42 38;" xml:space="preserve">
<style type="text/css">
	.st0{fill:#27C7F2;}
	.st1{fill:none;}
	.st2{fill:#6CE0FF;}
	.st3{fill:#FFFFFF;}
</style>
<path class="st0" d="M41.5,9.7l-9.1-9.1c-0.3-0.3-0.8-0.5-1.2-0.5H10.9c-0.5,0-0.9,0.2-1.2,0.5L0.6,9.7c-0.3,0.3-0.5,0.8-0.5,1.2
	v3.6c0,0.4,0.2,0.9,0.4,1.2l19.3,21.6c0.7,0.8,1.9,0.8,2.6,0l19.2-21.6c0.3-0.3,0.4-0.7,0.4-1.2V11C42,10.5,41.8,10.1,41.5,9.7
	L41.5,9.7z"/>
<rect y="0.1" class="st1" width="42" height="37.8"/>
<polygon class="st2" points="21,28.1 8,10.7 15.7,10.7 15.1,12.4 21,20.5 26.9,12.5 26.3,10.7 34,10.7 "/>
<path class="st2" d="M21,28.1"/>
<path class="st3" d="M26.9,12.4L21,20.5l-5.9-8.1l0.6-1.6H8l13,17.4l0,0l13-17.4h-7.7L26.9,12.4z"/>
</svg>
