<?xml version="1.0" encoding="utf-8"?>
<!-- Generator: Adobe Illustrator 21.0.0, SVG Export Plug-In . SVG Version: 6.00 Build 0)  -->
<svg version="1.0" id="图层_1" xmlns="http://www.w3.org/2000/svg" xmlns:xlink="http://www.w3.org/1999/xlink" x="0px" y="0px"
	 viewBox="0 0 32 34" style="enable-background:new 0 0 32 34;" xml:space="preserve">
<style type="text/css">
	.st0{fill-rule:evenodd;clip-rule:evenodd;fill:#5A5A5A;}
</style>
<g>
	<path class="st0" d="M27.6,1h-2.1c-0.6,0-1.3,0.3-1.3,1c0,0.6,0.6,1.2,1.3,1.2h2.1c1.3,0,2.1,0.8,2.1,2.1v24.5
		c0,1.3-0.8,2.1-2.1,2.1H4.8c-1.3,0-2.6-0.8-2.6-2.1V5.3C2.2,4,3,3.2,4.3,3.2h2.6c0.6,0,0.8-0.6,0.8-1.2c0-0.6-0.2-1-0.8-1H4.3
		c-3,0-4.2,1.8-4.2,4.3v24.1c0,2.6,1.6,4.4,4.4,4.4h23c2.9,0,4.4-1.5,4.4-4.4V5.3C31.9,2.9,30.4,1,27.6,1L27.6,1z"/>
	<path class="st0" d="M12.2,3.7h7.4c0.8,0,1.6-0.8,1.6-1.8c0-1.1-0.7-1.9-1.6-1.9h-7.4c-0.8,0-1.6,0.8-1.6,1.8
		C10.7,2.8,11.4,3.7,12.2,3.7L12.2,3.7z"/>
	<path class="st0" d="M7.1,17.2l5.7,5.7c0,0,0,0,0.1,0.1l0,0c0,0,0,0,0,0c0.2,0.2,0.5,0.3,0.9,0.3c0.4,0,0.8-0.2,1-0.5l10-10
		c0.4-0.4,0.2-1.2-0.3-1.6c-0.6-0.6-1.3-0.6-1.6-0.3L13.7,20L9,15.3c-0.2-0.2-0.8,0-1.4,0.6C7.2,16.3,6.8,17,7.1,17.2L7.1,17.2z"/>
</g>
</svg>
