<?xml version="1.0" encoding="utf-8"?>
<!-- Generator: Adobe Illustrator 21.0.0, SVG Export Plug-In . SVG Version: 6.00 Build 0)  -->
<svg version="1.0" id="图层_1" xmlns="http://www.w3.org/2000/svg" xmlns:xlink="http://www.w3.org/1999/xlink" x="0px" y="0px"
	 viewBox="0 0 40 25" style="enable-background:new 0 0 40 25;" xml:space="preserve">
<style type="text/css">
	.st0{fill:#6198D4;}
</style>
<path class="st0" d="M35.2,7.7V2c0-1.1-0.9-2-2-2H2.1c-1.1,0-2,0.9-2,2v21c0,1.1,0.9,2,2,2h31.1c1.1,0,2-0.9,2-2v-5.7l4.8-4.8
	L35.2,7.7z M8.8,15.4c-1.6,0-2.9-1.3-2.9-2.9s1.3-2.9,2.9-2.9c1.6,0,2.9,1.3,2.9,2.9S10.4,15.4,8.8,15.4z M18.1,15.4
	c-1.6,0-2.9-1.3-2.9-2.9s1.3-2.9,2.9-2.9s2.9,1.3,2.9,2.9S19.7,15.4,18.1,15.4z M27.4,15.4c-1.6,0-2.9-1.3-2.9-2.9s1.3-2.9,2.9-2.9
	s2.9,1.3,2.9,2.9S29,15.4,27.4,15.4z"/>
</svg>
