<?xml version="1.0" encoding="utf-8"?>
<!-- Generator: Adobe Illustrator 21.0.0, SVG Export Plug-In . SVG Version: 6.00 Build 0)  -->
<svg version="1.0" id="图层_1" xmlns="http://www.w3.org/2000/svg" xmlns:xlink="http://www.w3.org/1999/xlink" x="0px" y="0px"
	 viewBox="0 0 29 42" style="enable-background:new 0 0 29 42;" xml:space="preserve">
<style type="text/css">
	.st0{fill:#F5C823;}
</style>
<g>
	<path class="st0" d="M14.8,0c2,0,3.8,0.4,5.5,1.2s3.2,1.8,4.5,3.1s2.3,2.9,3.1,4.7c0.7,1.8,1.1,3.7,1.1,5.7c0,2.8-0.7,5.7-2.2,8.9
		c-1.5,3.2-3.1,6.2-4.9,8.9c-1.8,2.7-4.1,5.9-7.1,9.5c-2.9-3.6-5.3-6.8-7.1-9.5c-1.8-2.7-3.4-5.7-4.9-8.9c-1.5-3.2-2.2-6.2-2.2-8.9
		c0-2,0.4-3.9,1.1-5.7c0.7-1.8,1.8-3.3,3.1-4.7C6.1,3,7.6,1.9,9.3,1.2C11,0.4,12.9,0,14.8,0 M14.8,19.9c0.7,0,1.4-0.1,2-0.4
		s1.1-0.6,1.6-1.1s0.8-1.1,1.1-1.7c0.3-0.6,0.4-1.3,0.4-2s-0.1-1.4-0.4-2s-0.6-1.2-1.1-1.6c-0.4-0.5-1-0.9-1.6-1.1
		c-0.6-0.3-1.3-0.4-2-0.4s-1.4,0.1-2,0.4c-0.6,0.3-1.1,0.6-1.6,1.1s-0.8,1-1.1,1.6c-0.3,0.6-0.4,1.3-0.4,2s0.1,1.4,0.4,2
		s0.6,1.2,1.1,1.7c0.4,0.5,1,0.8,1.6,1.1C13.5,19.8,14.1,19.9,14.8,19.9"/>
</g>
</svg>
