<?xml version="1.0" encoding="utf-8"?>
<!-- Generator: Adobe Illustrator 21.0.0, SVG Export Plug-In . SVG Version: 6.00 Build 0)  -->
<svg version="1.0" id="图层_1" xmlns="http://www.w3.org/2000/svg" xmlns:xlink="http://www.w3.org/1999/xlink" x="0px" y="0px"
	 viewBox="0 0 32 30" style="enable-background:new 0 0 32 30;" xml:space="preserve">
<style type="text/css">
	.st0{fill-rule:evenodd;clip-rule:evenodd;fill:#5A5A5A;}
</style>
<g>
	<path class="st0" d="M21.7,28.9c-0.6,0-1.1-0.5-1.1-1.1v-24c0-0.6-0.5-1.1-1.1-1.1h-6.9c-0.6,0-1.1,0.5-1.1,1.1v24
		c0,0.6-0.5,1.1-1.1,1.1c-0.6,0-1.1-0.5-1.1-1.1v-24c0-1.9,1.5-3.4,3.4-3.4h6.9c1.9,0,3.4,1.5,3.4,3.4v24
		C22.9,28.3,22.3,28.9,21.7,28.9L21.7,28.9z"/>
	<path class="st0" d="M28.6,30H3.4C1.5,30,0,28.5,0,26.6v-9.1C0,15.5,1.5,14,3.4,14h2.3c0.6,0,1.1,0.5,1.1,1.1
		c0,0.6-0.5,1.1-1.1,1.1H3.4c-0.6,0-1.1,0.5-1.1,1.1v9.1c0,0.6,0.5,1.1,1.1,1.1h25.1c0.6,0,1.1-0.5,1.1-1.1v-16
		c0-0.6-0.5-1.1-1.1-1.1h-2.3c-0.6,0-1.1-0.5-1.1-1.1c0-0.6,0.5-1.1,1.1-1.1h2.3c1.9,0,3.4,1.5,3.4,3.4v16C32,28.5,30.5,30,28.6,30
		L28.6,30z"/>
</g>
</svg>
