<?xml version="1.0" encoding="utf-8"?>
<!-- Generator: Adobe Illustrator 21.0.0, SVG Export Plug-In . SVG Version: 6.00 Build 0)  -->
<svg version="1.0" id="图层_1" xmlns="http://www.w3.org/2000/svg" xmlns:xlink="http://www.w3.org/1999/xlink" x="0px" y="0px"
	 viewBox="0 0 36 36" style="enable-background:new 0 0 36 36;" xml:space="preserve">
<style type="text/css">
	.st0{fill:#50B0E4;}
	.st1{fill:none;}
</style>
<path class="st0" d="M4.5,5.7v24.7c0,0.6,0.5,1.1,1.1,1.1h24.7c0.6,0,1.1-0.5,1.1-1.1V5.7c0-0.6-0.5-1.1-1.1-1.1H5.6
	C5,4.6,4.5,5.1,4.5,5.7L4.5,5.7z"/>
<path class="st0" d="M1.1,9.1c0.6,0,1.1-0.5,1.1-1.1V2.4h5.6c0.6,0,1.1-0.4,1.1-1.1c0-0.6-0.5-1.2-1.1-1.2H1.1C0.5,0.1,0,0.6,0,1.2
	v6.7C0,8.6,0.5,9.1,1.1,9.1L1.1,9.1z"/>
<path class="st0" d="M34.9,9.1C35.5,9.1,36,8.6,36,8V1.3c0-0.6-0.5-1.1-1.1-1.1h-6.8c-0.6,0-1.1,0.6-1.1,1.2c0,0.6,0.5,1.1,1.1,1.1
	h5.6v5.6C33.7,8.6,34.2,9.1,34.9,9.1L34.9,9.1z"/>
<path class="st0" d="M1.1,27C0.5,27,0,27.5,0,28.1v6.7c0,0.6,0.5,1.1,1.1,1.1h6.7c0.6,0,1.1-0.6,1.1-1.2s-0.5-1.1-1.1-1.1H2.2V28
	C2.3,27.5,1.8,27,1.1,27L1.1,27z"/>
<rect y="0" class="st1" width="36" height="36"/>
<path class="st0" d="M34.9,27c-0.6,0-1.1,0.5-1.1,1.1v5.6h-5.7c-0.6,0-1.1,0.4-1.1,1.1c0,0.6,0.5,1.2,1.1,1.2h6.7
	c0.6,0,1.1-0.5,1.1-1.1v-6.7C36,27.5,35.5,27,34.9,27L34.9,27z"/>
</svg>
