<?xml version="1.0" encoding="utf-8"?>
<!-- Generator: Adobe Illustrator 21.0.0, SVG Export Plug-In . SVG Version: 6.00 Build 0)  -->
<svg version="1.0" id="图层_1" xmlns="http://www.w3.org/2000/svg" xmlns:xlink="http://www.w3.org/1999/xlink" x="0px" y="0px"
	 viewBox="0 0 36 36" style="enable-background:new 0 0 36 36;" xml:space="preserve">
<style type="text/css">
	.st0{fill:#FFCD21;}
</style>
<path class="st0" d="M35.5,15.3l-6.9,7.2c-0.3,0.3-0.5,1-0.5,1.5l1.6,10c0.2,1.3-1.2,2.5-2.5,1.6l-8.4-4.6c-0.5-0.3-1.2-0.3-1.6,0
	l-8.4,4.6c-1.2,0.7-2.6-0.3-2.5-1.6L8,24c0.2-0.5-0.2-1-0.5-1.5l-7.1-7.2c-0.8-1-0.3-2.6,1-2.8l9.6-1.5c0.5-0.2,1-0.5,1.3-1L16.5,1
	c0.7-1.3,2.5-1.3,3,0l4.3,9.1c0.2,0.5,0.7,0.8,1.3,1l9.6,1.5C36,12.7,36.5,14.3,35.5,15.3L35.5,15.3z"/>
</svg>
