<?xml version="1.0" encoding="utf-8"?>
<!-- Generator: Adobe Illustrator 21.0.0, SVG Export Plug-In . SVG Version: 6.00 Build 0)  -->
<svg version="1.0" id="图层_1" xmlns="http://www.w3.org/2000/svg" xmlns:xlink="http://www.w3.org/1999/xlink" x="0px" y="0px"
	 viewBox="0 0 44 28" style="enable-background:new 0 0 44 28;" xml:space="preserve">
<style type="text/css">
	.st0{fill:#FF8666;}
</style>
<path class="st0" d="M35.5,11.4h-3.4c0.3-2.9-0.6-5.8-2.5-8C27.7,1.2,24.9,0,21.9,0c-2.9,0-5.7,1.3-7.7,3.4c-1.9,2.2-2.9,5.1-2.5,8
	H8.3c-4.6,0-8.4,3.7-8.4,8.4c0,4.6,3.8,8.4,8.4,8.4h27.3c4.6,0,8.4-3.7,8.4-8.4C43.9,15.1,40.2,11.4,35.5,11.4z M15.1,19.3l9-7.5
	l-8.4-1.5h12.8l-7.8,7.2l8.1,1.8H15.1z"/>
</svg>
