<?xml version="1.0" encoding="utf-8"?>
<!-- Generator: Adobe Illustrator 21.0.0, SVG Export Plug-In . SVG Version: 6.00 Build 0)  -->
<svg version="1.0" id="图层_1" xmlns="http://www.w3.org/2000/svg" xmlns:xlink="http://www.w3.org/1999/xlink" x="0px" y="0px"
	 viewBox="0 0 38 32" style="enable-background:new 0 0 38 32;" xml:space="preserve">
<style type="text/css">
	.st0{fill:#43DAC3;}
</style>
<g>
	<g>
		<path class="st0" d="M27.5,11.7h9.1c0.7,0,1.3-0.4,1.3-1.1c0-0.8-0.5-1.1-1.3-1.1h-9.2c-0.7,0-1.3,0.4-1.3,1.1
			C26.2,11.3,26.8,11.7,27.5,11.7L27.5,11.7z M36.7,14.6h-7.2c-0.7,0-1.3,0.4-1.3,1.1c0,0.8,0.6,1.1,1.3,1.1h7.2
			c0.7,0,1.3-0.4,1.3-1.1C37.9,15,37.4,14.6,36.7,14.6L36.7,14.6z M36.7,19.5h-4.9c-0.7,0-1.3,0.4-1.3,1.1s0.6,1.1,1.3,1.1h4.8
			c0.7,0,1.3-0.4,1.3-1.1S37.5,19.5,36.7,19.5L36.7,19.5z M28.7,24.8l-6.9-2.7c0,0-1.3-0.5-1.8-1c-0.3-0.3-0.3-1.1,0-2.1
			c0.3-1,3.8-4.9,3.8-8.5c0-5.5-3.7-10-8.2-10c-4.5,0-8.2,4.5-8.2,10c0,3.4,3.2,7.5,3.6,8.3c0.4,0.7,0.3,1.9,0,2.2
			c-0.5,0.5-2.2,1-2.2,1l-6.2,2.8C1.2,25.3,0,26.7,0,28.2V29c0,1.7,1.4,2.7,3.1,2.7h25.2c1.7,0,3.1-1,3.1-2.7v-0.7
			C31.3,26.7,30.2,25.3,28.7,24.8L28.7,24.8z M28.7,24.8"/>
	</g>
</g>
</svg>
