<?xml version="1.0" encoding="utf-8"?>
<!-- Generator: Adobe Illustrator 21.0.0, SVG Export Plug-In . SVG Version: 6.00 Build 0)  -->
<svg version="1.0" id="图层_1" xmlns="http://www.w3.org/2000/svg" xmlns:xlink="http://www.w3.org/1999/xlink" x="0px" y="0px"
	 viewBox="0 0 34 32" style="enable-background:new 0 0 34 32;" xml:space="preserve">
<style type="text/css">
	.st0{fill:#44BBFF;}
</style>
<path class="st0" d="M34.1,28.5L34.1,28.5l0-21.3c0-2.6-2.4-2.3-2.4-2.3s-14.1,0-13.3,0c-0.8,0-1.2-0.4-1.2-0.4s-0.6-1-1.6-2.5
	c-1.1-1.6-2.3-1.3-2.3-1.3H3c-2.9,0-2.9,2.8-2.9,2.8v25c0,3.1,2.3,2.7,2.3,2.7h29.5C34.4,31.1,34.1,28.5,34.1,28.5z M8.7,23.1
	c-1,0-1.8-0.8-1.8-1.8c0-1,0.8-1.8,1.8-1.8s1.8,0.8,1.8,1.8C10.5,22.3,9.7,23.1,8.7,23.1z M8.7,16.5c-1,0-1.8-0.8-1.8-1.8h0
	c0-1,0.8-1.8,1.8-1.8s1.8,0.8,1.8,1.8C10.5,15.7,9.7,16.5,8.7,16.5z M27.8,22.2c-0.3,0.5-0.9,0.8-1.5,0.8H14.9
	c-0.9,0-1.7-0.8-1.7-1.7c0-0.9,0.8-1.7,1.7-1.7h11.4c0.6,0,1.2,0.3,1.5,0.8C28.1,21,28.1,21.7,27.8,22.2z M26.3,16.4L26.3,16.4
	l-11.4,0c-0.9,0-1.7-0.8-1.7-1.7c0-0.9,0.8-1.7,1.7-1.7h11.4c0.9,0,1.7,0.8,1.7,1.7C28,15.6,27.3,16.4,26.3,16.4z"/>
</svg>
