<?xml version="1.0" encoding="utf-8"?>
<!-- Generator: Adobe Illustrator 21.0.0, SVG Export Plug-In . SVG Version: 6.00 Build 0)  -->
<svg version="1.0" id="图层_1" xmlns="http://www.w3.org/2000/svg" xmlns:xlink="http://www.w3.org/1999/xlink" x="0px" y="0px"
	 viewBox="0 0 35 29" style="enable-background:new 0 0 35 29;" xml:space="preserve">
<style type="text/css">
	.st0{fill-rule:evenodd;clip-rule:evenodd;fill:#5A5A5A;}
</style>
<g>
	<path class="st0" d="M31.6,4.4h-5L24,0H10.8L8.2,4.4h-5c-1.1,0-3.3,1.1-3.3,3.2v17.5c0,1.8,1.6,3.3,3.1,3.3h28.7
		c1.4,0,3.2-1.5,3.2-3.2V7.6C34.9,6.5,33.8,4.4,31.6,4.4L31.6,4.4z M32.7,25.2c0,0.4-0.7,1-1,1.1H3c-0.3,0-0.9-0.5-0.9-1.1V7.6
		c0-0.7,0.9-1,1.1-1.1h5h1.2l0.6-1.1l2-3.3h10.7l2,3.3l0.6,1.1h1.2h5c0.8,0,1.1,1,1.1,1.1V25.2L32.7,25.2z"/>
	<path class="st0" d="M17.4,7.6c-4.2,0-7.7,3.4-7.7,7.7c0,4.2,3.4,7.7,7.7,7.7s7.7-3.4,7.7-7.7C25.1,11.1,21.6,7.6,17.4,7.6
		L17.4,7.6z M17.4,20.8c-3,0-5.5-2.5-5.5-5.5c0-3,2.5-5.5,5.5-5.5c3,0,5.5,2.5,5.5,5.5C22.9,18.3,20.4,20.8,17.4,20.8L17.4,20.8z"/>
</g>
</svg>
