<?xml version="1.0" encoding="utf-8"?>
<!-- Generator: Adobe Illustrator 21.0.0, SVG Export Plug-In . SVG Version: 6.00 Build 0)  -->
<svg version="1.0" id="图层_1" xmlns="http://www.w3.org/2000/svg" xmlns:xlink="http://www.w3.org/1999/xlink" x="0px" y="0px"
	 viewBox="0 0 92 35" style="enable-background:new 0 0 92 35;" xml:space="preserve">
<style type="text/css">
	.st0{fill:#FF7A7A;}
	.st1{font-family:'PingFang-SC-Medium';}
	.st2{font-size:24px;}
	.st3{fill-rule:evenodd;clip-rule:evenodd;fill:#FF7A7A;}
</style>
<text transform="matrix(1 0 0 1 34.0005 26.1282)" class="st0 st1 st2">预约</text>
<path class="st0" d="M86.3,0H5.7c-2.8,0-5,2.2-5,5v25c0,2.8,2.2,5,5,5h22.2H30h1h20.6h0.8h1.8h0.1h0.6h31.4c2.8,0,5-2.2,5-5V5
	C91.3,2.2,89,0,86.3,0z M89.3,30c0,1.7-1.3,3-3,3H54.9h-0.6H54h-1.5h-0.9H31H5.7c-1.7,0-3-1.3-3-3V5c0-1.7,1.3-3,3-3h80.5
	c1.7,0,3,1.3,3,3V30z"/>
<g>
	<path class="st3" d="M8.2,9.2c0,0-1,5.2,6.6,12.8c0.1,0.1,0.1,0.1,0.2,0.2c0.1,0.1,0.1,0.1,0.2,0.2c7.6,7.6,12.8,6.6,12.8,6.6
		c0.3,0,1-0.2,1.2-0.5c0,0,1.2-1,1.9-2.2c0.7-1.2-0.6-3-1.4-3.8c-1.6-1.6-3-1.9-3.7-1.4c-0.3,0.2-1.4,1.4-1.4,1.4
		c-0.2,0.2-0.7,0.4-1,0.4c0,0-2,0-5.7-3.6c-3.6-3.7-3.6-5.7-3.6-5.7c0-0.3,0.2-0.8,0.4-1c0,0,1.4-1.4,1.4-1.4
		c0.5-0.7-0.4-2.3-1.4-3.7c-0.7-0.9-1.3-1.4-2.3-1.6C10.8,5.7,8.3,7.6,8.2,9.2L8.2,9.2z"/>
</g>
</svg>
